# xmcd CD database file
#
# Track frame offsets:
#	187
#	20902
#	34720
#	49945
#	66065
#	79407
#	92240
#	110445
#	125242
#	142022
#	157835
#	175127
#	190952
#	206265
#	222035
#	237762
#	249152
#	262640
#	279037
#	293995
#
# Disc length: 4229 seconds
#
# Revision: 1
# Processed by: cddbd v1.5.1PL0 Copyright (c) Steve Scherf et al.
# Submitted via: CDex 1.51
#
DISCID=1a108314
DTITLE=Various Artist - 〜70年代ベスト・ソング・コレクション〜06
DYEAR=1994
DGENRE=JPop
TTITLE0=シクラメンのかほり/布施明
TTITLE1=さよならをするために/ビリー・バンバン
TTITLE2=危険なふたり/沢田研二
TTITLE3=二人でお酒を/梓みちよ
TTITLE4=わたしの城下町/小柳ルミ子
TTITLE5=経験/辺見マリ
TTITLE6=五番街のマリィへ/ペドロ＆カプリシャス
TTITLE7=さらば涙と言おう/森田健作
TTITLE8=一度だけなら/野村真樹
TTITLE9=恋のしずく/伊東ゆかり
TTITLE10=白いブランコ/ビリー・バンバン
TTITLE11=折鶴/千葉紘子
TTITLE12=積木の部屋/布施明
TTITLE13=メランコリー/梓みちよ
TTITLE14=勝手にしやがれ/沢田研二
TTITLE15=ひなげしの花/アグネス・チャン
TTITLE16=友達よ泣くんじゃない/森田健作
TTITLE17=ジョニィへの伝言/ペドロ＆カプリシャス
TTITLE18=瀬戸の花嫁/小柳ルミ子
TTITLE19=サムライ/沢田研二
EXTD=YEAR: 1994
EXTT0=
EXTT1=
EXTT2=
EXTT3=
EXTT4=
EXTT5=
EXTT6=
EXTT7=
EXTT8=
EXTT9=
EXTT10=
EXTT11=
EXTT12=
EXTT13=
EXTT14=
EXTT15=
EXTT16=
EXTT17=
EXTT18=
EXTT19=
PLAYORDER=
